<?xml version="1.0" standalone="no"?>
<!DOCTYPE svg PUBLIC "-//W3C//DTD SVG 1.1//EN"
"http://www.w3.org/Graphics/SVG/1.1/DTD/svg11.dtd">

<svg width="462" height="406" view_box="0 0 462 406"
xmlns="http://www.w3.org/2000/svg"
xmlns:link="http://www.w3.org/1999/xlink">\n\n<desc>Généré par Mocodo 2.3.7 le Tue, 16 Apr 2019 04:07:57</desc>

<rect id="frame" x="0" y="0" width="462" height="406" fill="#f7f7f7" stroke="none" stroke-width="0"/>

<!-- Association PROPOSE -->
<line x1="179" y1="321" x2="299" y2="321" stroke="#9970ab" stroke-width="2"/>
<text x="224" y="338.0" fill="#1b7837" font-family="Verdana" font-size="12">0,N</text>
<line x1="413" y1="195" x2="299" y2="321" stroke="#9970ab" stroke-width="2"/>
<text x="373.42837138" y="254" fill="#1b7837" font-family="Verdana" font-size="12">1,1</text>
<g id="association-PROPOSE">
	<path d="M 322 296 a 14 14 90 0 1 14 14 V 321 h -74 V 310 a 14 14 90 0 1 14 -14" fill="#c2a5cf" stroke="#c2a5cf" stroke-width="0"/>
	<path d="M 336 321.0 v 11 a 14 14 90 0 1 -14 14 H 276 a 14 14 90 0 1 -14 -14 V 321.0 H 74" fill="#e7d4e8" stroke="#e7d4e8" stroke-width="0"/>
	<rect x="262" y="296" width="74" height="50" fill="none" rx="14" stroke="#9970ab" stroke-width="2"/>
	<line x1="262" y1="321" x2="336" y2="321" stroke="#9970ab" stroke-width="1"/>
	<text x="269" y="313.7" fill="#000000" font-family="Verdana" font-size="12">PROPOSE</text>
</g>

<!-- Association AFFECTED TO -->
<line x1="179" y1="321" x2="58" y2="321" stroke="#9970ab" stroke-width="2"/>
<text x="113" y="338.0" fill="#1b7837" font-family="Verdana" font-size="12">1,1</text>
<line x1="58" y1="195" x2="58" y2="321" stroke="#9970ab" stroke-width="2"/>
<text x="63.0" y="263" fill="#1b7837" font-family="Verdana" font-size="12">0,N</text>
<g id="association-AFFECTED TO">
	<path d="M 93 296 a 14 14 90 0 1 14 14 V 321 h -98 V 310 a 14 14 90 0 1 14 -14" fill="#c2a5cf" stroke="#c2a5cf" stroke-width="0"/>
	<path d="M 107 321.0 v 11 a 14 14 90 0 1 -14 14 H 23 a 14 14 90 0 1 -14 -14 V 321.0 H 98" fill="#e7d4e8" stroke="#e7d4e8" stroke-width="0"/>
	<rect x="9" y="296" width="98" height="50" fill="none" rx="14" stroke="#9970ab" stroke-width="2"/>
	<line x1="9" y1="321" x2="107" y2="321" stroke="#9970ab" stroke-width="1"/>
	<text x="16" y="313.7" fill="#000000" font-family="Verdana" font-size="12">AFFECTED TO</text>
</g>

<!-- Association WRITTEN BY -->
<line x1="299" y1="68" x2="179" y2="195" stroke="#9970ab" stroke-width="2"/>
<text x="233" y="109.12104898" fill="#1b7837" font-family="Verdana" font-size="12">1,1</text>
<line x1="179" y1="321" x2="179" y2="195" stroke="#9970ab" stroke-width="2"/>
<text x="184.0" y="237" fill="#1b7837" font-family="Verdana" font-size="12">0,N</text>
<g id="association-WRITTEN BY">
	<path d="M 211 170 a 14 14 90 0 1 14 14 V 195 h -92 V 184 a 14 14 90 0 1 14 -14" fill="#c2a5cf" stroke="#c2a5cf" stroke-width="0"/>
	<path d="M 225 195.0 v 11 a 14 14 90 0 1 -14 14 H 147 a 14 14 90 0 1 -14 -14 V 195.0 H 92" fill="#e7d4e8" stroke="#e7d4e8" stroke-width="0"/>
	<rect x="133" y="170" width="92" height="50" fill="none" rx="14" stroke="#9970ab" stroke-width="2"/>
	<line x1="133" y1="195" x2="225" y2="195" stroke="#9970ab" stroke-width="1"/>
	<text x="140" y="187.7" fill="#000000" font-family="Verdana" font-size="12">WRITTEN BY</text>
</g>

<!-- Association HAS RIGHT -->
<line x1="299" y1="68" x2="299" y2="195" stroke="#9970ab" stroke-width="2"/>
<text x="304.0" y="144" fill="#1b7837" font-family="Verdana" font-size="12">1,1</text>
<line x1="413" y1="195" x2="299" y2="195" stroke="#9970ab" stroke-width="2"/>
<text x="347" y="187.0" fill="#1b7837" font-family="Verdana" font-size="12">1,1</text>
<g id="association-HAS RIGHT">
	<path d="M 327 170 a 14 14 90 0 1 14 14 V 195 h -84 V 184 a 14 14 90 0 1 14 -14" fill="#c2a5cf" stroke="#c2a5cf" stroke-width="0"/>
	<path d="M 341 195.0 v 11 a 14 14 90 0 1 -14 14 H 271 a 14 14 90 0 1 -14 -14 V 195.0 H 84" fill="#e7d4e8" stroke="#e7d4e8" stroke-width="0"/>
	<rect x="257" y="170" width="84" height="50" fill="none" rx="14" stroke="#9970ab" stroke-width="2"/>
	<line x1="257" y1="195" x2="341" y2="195" stroke="#9970ab" stroke-width="1"/>
	<text x="264" y="187.7" fill="#000000" font-family="Verdana" font-size="12">HAS RIGHT</text>
</g>

<!-- Association HAS -->
<line x1="299" y1="68" x2="413" y2="68" stroke="#9970ab" stroke-width="2"/>
<text x="344" y="85.0" fill="#1b7837" font-family="Verdana" font-size="12">0,N</text>
<line x1="413" y1="195" x2="413" y2="68" stroke="#9970ab" stroke-width="2"/>
<text x="418.0" y="145" fill="#1b7837" font-family="Verdana" font-size="12">1,1</text>
<g id="association-HAS">
	<path d="M 419 43 a 14 14 90 0 1 14 14 V 68 h -40 V 57 a 14 14 90 0 1 14 -14" fill="#c2a5cf" stroke="#c2a5cf" stroke-width="0"/>
	<path d="M 433 68.0 v 11 a 14 14 90 0 1 -14 14 H 407 a 14 14 90 0 1 -14 -14 V 68.0 H 40" fill="#e7d4e8" stroke="#e7d4e8" stroke-width="0"/>
	<rect x="393" y="43" width="40" height="50" fill="none" rx="14" stroke="#9970ab" stroke-width="2"/>
	<line x1="393" y1="68" x2="433" y2="68" stroke="#9970ab" stroke-width="1"/>
	<text x="400" y="60.7" fill="#000000" font-family="Verdana" font-size="12">HAS</text>
</g>

<!-- Association POSSESSES -->
<line x1="299" y1="68" x2="179" y2="68" stroke="#9970ab" stroke-width="2"/>
<text x="232" y="60.0" fill="#1b7837" font-family="Verdana" font-size="12">0,N</text>
<line x1="58" y1="68" x2="179" y2="68" stroke="#9970ab" stroke-width="2"/>
<text x="103" y="85.0" fill="#1b7837" font-family="Verdana" font-size="12">0,N</text>
<g id="association-POSSESSES">
	<path d="M 209 43 a 14 14 90 0 1 14 14 V 68 h -88 V 57 a 14 14 90 0 1 14 -14" fill="#c2a5cf" stroke="#c2a5cf" stroke-width="0"/>
	<path d="M 223 68.0 v 11 a 14 14 90 0 1 -14 14 H 149 a 14 14 90 0 1 -14 -14 V 68.0 H 88" fill="#e7d4e8" stroke="#e7d4e8" stroke-width="0"/>
	<rect x="135" y="43" width="88" height="50" fill="none" rx="14" stroke="#9970ab" stroke-width="2"/>
	<line x1="135" y1="68" x2="223" y2="68" stroke="#9970ab" stroke-width="1"/>
	<text x="142" y="60.7" fill="#000000" font-family="Verdana" font-size="12">POSSESSES</text>
</g>

<!-- Entity Answer -->
<g id="entity-Answer">
	<g id="frame-Answer">
		<rect x="373" y="153" width="80" height="25" fill="#a6dba0" stroke="#a6dba0" stroke-width="0"/>
		<rect x="373" y="178.0" width="80" height="59" fill="#d9f0d3" stroke="#d9f0d3" stroke-width="0"/>
		<rect x="373" y="153" width="80" height="84" fill="none" stroke="#5aae61" stroke-width="2"/>
		<line x1="373" y1="178" x2="453" y2="178" stroke="#5aae61" stroke-width="1"/>
	</g>
	<text x="390" y="170.7" fill="#000000" font-family="Verdana" font-size="12">Answer</text>
	<text x="378" y="195.8" fill="#000000" font-family="Verdana" font-size="12">content</text>
	<line x1="378" y1="198" x2="424" y2="198" stroke="#000000" stroke-width="1"/>
	<text x="378" y="212.8" fill="#000000" font-family="Verdana" font-size="12">created_at</text>
	<text x="378" y="229.8" fill="#000000" font-family="Verdana" font-size="12">updated_at</text>
</g>

<!-- Entity Role -->
<g id="entity-Role">
	<g id="frame-Role">
		<rect x="18" y="144" width="80" height="25" fill="#a6dba0" stroke="#a6dba0" stroke-width="0"/>
		<rect x="18" y="169.0" width="80" height="77" fill="#d9f0d3" stroke="#d9f0d3" stroke-width="0"/>
		<rect x="18" y="144" width="80" height="102" fill="none" stroke="#5aae61" stroke-width="2"/>
		<line x1="18" y1="169" x2="98" y2="169" stroke="#5aae61" stroke-width="1"/>
	</g>
	<text x="44" y="161.7" fill="#000000" font-family="Verdana" font-size="12">Role</text>
	<text x="23" y="186.7" fill="#000000" font-family="Verdana" font-size="12">name</text>
	<line x1="23" y1="189" x2="58" y2="189" stroke="#000000" stroke-width="1"/>
	<text x="23" y="203.8" fill="#000000" font-family="Verdana" font-size="12">label</text>
	<text x="23" y="220.8" fill="#000000" font-family="Verdana" font-size="12">created_at</text>
	<text x="23" y="237.8" fill="#000000" font-family="Verdana" font-size="12">updated_at</text>
</g>

<!-- Entity Tag -->
<g id="entity-Tag">
	<g id="frame-Tag">
		<rect x="18" y="17" width="80" height="25" fill="#a6dba0" stroke="#a6dba0" stroke-width="0"/>
		<rect x="18" y="42.0" width="80" height="77" fill="#d9f0d3" stroke="#d9f0d3" stroke-width="0"/>
		<rect x="18" y="17" width="80" height="102" fill="none" stroke="#5aae61" stroke-width="2"/>
		<line x1="18" y1="42" x2="98" y2="42" stroke="#5aae61" stroke-width="1"/>
	</g>
	<text x="46" y="34.7" fill="#000000" font-family="Verdana" font-size="12">Tag</text>
	<text x="23" y="59.7" fill="#000000" font-family="Verdana" font-size="12">name</text>
	<line x1="23" y1="62" x2="58" y2="62" stroke="#000000" stroke-width="1"/>
	<text x="23" y="76.8" fill="#000000" font-family="Verdana" font-size="12">slug</text>
	<text x="23" y="93.8" fill="#000000" font-family="Verdana" font-size="12">created_at</text>
	<text x="23" y="110.8" fill="#000000" font-family="Verdana" font-size="12">updated_at</text>
</g>

<!-- Entity Question -->
<g id="entity-Question">
	<g id="frame-Question">
		<rect x="259" y="9" width="80" height="25" fill="#a6dba0" stroke="#a6dba0" stroke-width="0"/>
		<rect x="259" y="34.0" width="80" height="93" fill="#d9f0d3" stroke="#d9f0d3" stroke-width="0"/>
		<rect x="259" y="9" width="80" height="118" fill="none" stroke="#5aae61" stroke-width="2"/>
		<line x1="259" y1="34" x2="339" y2="34" stroke="#5aae61" stroke-width="1"/>
	</g>
	<text x="272" y="26.7" fill="#000000" font-family="Verdana" font-size="12">Question</text>
	<text x="264" y="51.7" fill="#000000" font-family="Verdana" font-size="12">title</text>
	<line x1="264" y1="54" x2="288" y2="54" stroke="#000000" stroke-width="1"/>
	<text x="264" y="68.8" fill="#000000" font-family="Verdana" font-size="12">content</text>
	<text x="264" y="85.8" fill="#000000" font-family="Verdana" font-size="12">slug</text>
	<text x="264" y="102.8" fill="#000000" font-family="Verdana" font-size="12">created_at</text>
	<text x="264" y="119.8" fill="#000000" font-family="Verdana" font-size="12">updated_at</text>
</g>

<!-- Entity User -->
<g id="entity-User">
	<g id="frame-User">
		<rect x="139" y="245" width="80" height="25" fill="#a6dba0" stroke="#a6dba0" stroke-width="0"/>
		<rect x="139" y="270.0" width="80" height="127" fill="#d9f0d3" stroke="#d9f0d3" stroke-width="0"/>
		<rect x="139" y="245" width="80" height="152" fill="none" stroke="#5aae61" stroke-width="2"/>
		<line x1="139" y1="270" x2="219" y2="270" stroke="#5aae61" stroke-width="1"/>
	</g>
	<text x="165" y="262.7" fill="#000000" font-family="Verdana" font-size="12">User</text>
	<text x="144" y="287.7" fill="#000000" font-family="Verdana" font-size="12">username</text>
	<line x1="144" y1="290" x2="205" y2="290" stroke="#000000" stroke-width="1"/>
	<text x="144" y="304.7" fill="#000000" font-family="Verdana" font-size="12">password</text>
	<text x="144" y="321.8" fill="#000000" font-family="Verdana" font-size="12">description</text>
	<text x="144" y="338.8" fill="#000000" font-family="Verdana" font-size="12">avatar</text>
	<text x="144" y="355.8" fill="#000000" font-family="Verdana" font-size="12">slug</text>
	<text x="144" y="372.8" fill="#000000" font-family="Verdana" font-size="12">created_at</text>
	<text x="144" y="389.8" fill="#000000" font-family="Verdana" font-size="12">updated_at</text>
</g>
</svg>